<?xml version="1.0" encoding="utf-8"?>
<!-- Generator: Adobe Illustrator 15.0.2, SVG Export Plug-In . SVG Version: 6.00 Build 0)  -->
<!DOCTYPE svg PUBLIC "-//W3C//DTD SVG 1.1//EN" "http://www.w3.org/Graphics/SVG/1.1/DTD/svg11.dtd">
<svg version="1.1" id="Calque_1" xmlns="http://www.w3.org/2000/svg" xmlns:xlink="http://www.w3.org/1999/xlink" x="0px" y="0px"
	 width="595.28px" height="841.89px" viewBox="0 0 595.28 841.89" enable-background="new 0 0 595.28 841.89" xml:space="preserve">
<circle fill="#3E393C" cx="106.019" cy="183.177" r="101.981"/>
<g>
	<g>
		<path fill="#FFFFFF" d="M182.135,186.074c-0.512-2.324-1.3-4.471-2.364-6.439c-1.064-1.969-2.442-3.78-4.137-5.435
			c-1.694-1.655-3.329-2.796-4.905-3.427c-1.577-0.63-3.349-0.945-5.319-0.945c-1.734,0-3.488,0.296-5.26,0.887
			c-1.773,0.591-3.527,1.616-5.26,3.074c-1.734,1.458-3.27,3.409-4.609,5.854c-1.576,2.837-2.561,5.636-2.955,8.395l-5.438,37.676
			c-2.993-0.63-5.159-1.456-6.498-2.481c-1.89-1.495-3.406-3.621-4.548-6.377c-1.142-2.755-1.712-6.181-1.712-10.275
			c0-2.519,0.254-5.333,0.767-8.444c0.512-3.111,1.24-6.083,2.186-8.918c2.284-6.378,5.867-11.141,10.75-14.291
			c1.338-0.708,2.717-1.418,4.135-2.127l0.354-2.126c-1.891,0-3.879,0.257-5.965,0.769c-2.087,0.513-4.114,1.318-6.083,2.421
			c-0.42,0.249-0.83,0.497-1.23,0.742c-1.786,0.316-5.049,2.664-9.78,7.125l-0.399,0.358c-7.385,6.753-13.242,11.595-17.655,14.474
			c-4.379,2.901-8.283,4.451-11.737,4.641c-3.182,0.173-5.985-0.612-8.418-2.362c-2.441-1.753-4.243-4.275-5.406-7.562
			c-0.497-1.409-0.817-2.87-0.955-4.383c-0.137-1.512-0.093-3.164,0.13-4.954c6.065-3.708,11.803-8.14,17.233-13.284
			c5.517-5.09,10.885-10.99,16.132-17.691c-0.275,1.938-0.369,3.604-0.283,4.998s0.326,2.717,0.715,3.964
			c0.94,3.006,2.652,5.349,5.133,7.026c2.471,1.673,5.385,2.457,8.745,2.362c7.004-0.199,13.875-4.325,20.743-12.295
			c7.042-7.852,10.883-16.621,11.443-26.356c2.633,1.201,4.603,2.502,5.912,3.911c1.303,1.406,2.241,3.241,2.812,5.51
			c0.883,3.511,0.508,7.034-1.105,10.582c-1.594,3.563-4.374,7.055-8.332,10.483c-0.644,0.62-1.535,1.385-2.674,2.293
			c-1.676,1.258-2.43,2.189-2.265,2.793c0.046,0.165,0.208,0.341,0.489,0.527c0.28,0.187,0.536,0.276,0.763,0.27
			c0.514-0.014,1.638-0.583,3.378-1.705c1.746-1.117,3.471-2.492,5.18-4.122c3.398-3.185,5.779-6.59,7.134-10.222
			c1.374-3.617,1.604-7.306,0.668-11.077c-0.75-3.018-2.133-5.537-4.157-7.56c-2.03-2.028-4.696-3.538-8-4.531
			c-0.11-0.432-0.216-0.947-0.309-1.544c-0.095-0.598-0.162-0.978-0.204-1.14c-1.159-4.502-3.568-7.929-7.242-10.286
			c-3.689-2.368-8.536-3.611-14.524-3.719c-8.864-0.16-18.462,2.612-28.667,8.398c-10.038,5.895-18.892,14.051-26.48,24.521
			c-4.348,6.388-7.374,12.716-9.109,18.964c-1.678,6.286-2.069,12.403-1.202,18.337c-1.833,0.607-3.507,1.06-5.021,1.355
			c-1.516,0.298-3.002,0.475-4.461,0.529c-5.334,0.204-10.313-1.366-14.953-4.725c-4.666-3.375-8.086-7.871-10.236-13.473
			c-3.215-8.372-2.077-16.729,3.537-24.992c5.773-8.155,14.762-13.866,26.92-17.161c-0.141-0.058-0.302-0.089-0.481-0.09
			c-3.296-0.493-5.638-0.748-7.023-0.761c-5.063-0.046-9.944,1.084-14.621,3.407c-4.646,2.34-8.452,5.596-11.408,9.775
			c-2.709,3.967-4.288,8.342-4.747,13.121c-0.435,4.794,0.284,9.587,2.137,14.362c2.768,7.134,7.184,12.899,13.221,17.275
			c5.99,4.347,12.322,6.371,19.038,6.098c1.456-0.058,2.891-0.206,4.311-0.444c1.418-0.235,2.905-0.564,4.458-0.985
			c0.148,0.412,0.271,0.915,0.371,1.508c0.064,0.18,0.106,0.298,0.127,0.354l0.636,1.77c1.8,5.012,4.665,8.966,8.583,11.849
			c3.894,2.871,8.157,4.166,12.803,3.9c3.77-0.214,7.813-1.564,12.15-4.037c4.149-2.331,8.396-5.578,12.76-9.704
			c-1.288,2.825-2.147,5.796-2.567,8.917c-4.476,12.3-9.186,21.739-14.243,28.231c-6.128,8.196-13.755,12.748-23.006,13.573
			c-7.738,0.691-14.997-1.028-21.822-5.191c-6.884-4.198-11.734-9.815-14.512-16.819c-2.318-5.845-2.338-11-0.027-15.44
			c2.351-4.415,6.279-6.746,11.752-7.014c3.649-0.178,6.911,0.605,9.775,2.341c2.856,1.731,4.857,4.167,6.013,7.313
			c1.506,4.1,1.007,8.129-1.467,12.108c-2.441,4.002-6.321,6.919-11.659,8.739c1.229,0.344,2.417,0.581,3.562,0.708
			c1.145,0.129,2.223,0.155,3.235,0.077c4.947-0.377,8.594-2.6,10.967-6.651c2.408-4.029,2.724-8.521,0.921-13.49
			c-1.523-4.198-4.418-7.617-8.698-10.266c-4.303-2.665-8.877-3.891-13.704-3.667c-6.545,0.305-11.155,2.86-13.794,7.692
			c-2.59,4.863-2.504,10.724,0.223,17.557c3.313,8.302,8.925,14.811,16.786,19.492c7.786,4.632,16.36,6.495,25.783,5.625
			c7.392-0.683,14.004-2.962,19.878-6.809c5.932-3.806,10.516-8.706,13.762-14.689c0.823-1.539,1.648-3.414,2.475-5.624
			c1.741,3.771,4.401,6.762,7.997,8.956c2.677,1.655,7.207,3.11,13.586,4.371l-4.467,24.907l7.415-0.004l4.488-25.021
			c4.098,0,8.668-1.339,13.713-4.018c3.861-2.047,7.052-4.312,9.576-6.793c2.521-2.48,4.748-5.513,6.679-9.098
			c1.93-3.583,3.211-7.227,3.841-10.929c0.236-1.418,0.395-2.481,0.473-3.19c0.078-0.709,0.119-1.734,0.119-3.073
			C182.904,190.741,182.647,188.398,182.135,186.074z M146.053,154.486c-6.472,7.783-13.075,11.802-19.933,11.98
			c-2.058,0.054-3.99-0.607-5.796-1.983c-1.812-1.38-3.033-3.087-3.663-5.125c-1.032-3.336-0.924-6.762,0.34-10.265
			c1.284-3.489,3.676-6.874,7.191-10.147c3.849-3.64,7.874-6.335,12.051-8.099c4.196-1.75,8.549-2.609,13.041-2.587
			c1.138,0.005,2.267,0.094,3.388,0.261c1.121,0.169,2.293,0.419,3.515,0.752C156.093,138.422,152.689,146.811,146.053,154.486z
			 M85.667,158.486c2.471-5.74,5.685-11.274,9.655-16.603c7.144-9.544,14.445-16.678,21.808-21.462
			c7.462-4.716,14.522-6.998,21.106-6.89c4.631,0.075,8.451,1.09,11.454,3.039c2.991,1.942,4.944,4.677,5.867,8.214l0.553,2.122
			c-2.261-0.394-3.921-0.663-4.978-0.808c-1.057-0.143-2.006-0.219-2.847-0.224c-10.931-0.075-23.251,7.058-36.501,21.701
			c-2.666,3.104-4.675,5.444-6.044,7.009c-4.44,5.192-8.797,9.71-13.092,13.539c-4.249,3.859-8.335,6.954-12.279,9.268
			C81.491,170.567,83.256,164.266,85.667,158.486z M171.565,203.483c-0.475,2.602-0.91,4.255-1.305,4.965
			c-1.266,3.073-2.491,5.476-3.677,7.21c-0.554,0.788-1.622,1.97-3.202,3.546c-2.689,2.758-5.695,4.689-9.016,5.791
			c-0.08,0-1.819,0.355-5.219,1.064l4.409-32.357c0.236-2.131,0.769-4.5,1.6-7.105c0.829-2.604,1.718-4.5,2.666-5.685
			c0.631-0.71,1.343-1.263,2.133-1.658c0.79-0.395,1.698-0.592,2.726-0.592c0.71,0,1.58,0.237,2.607,0.709
			c1.026,0.473,2.152,1.556,3.376,3.251c1.225,1.695,2.074,3.369,2.548,5.023c0.474,1.654,0.77,2.936,0.889,3.841
			c0.118,0.906,0.178,2.384,0.178,4.433C172.277,198.361,172.039,200.883,171.565,203.483z"/>
	</g>
</g>
<path fill="#3E393C" d="M286.875,213.814c-6.84,3.838-14.082,5.756-21.725,5.756c-4.828,0-9.161-0.829-12.998-2.483
	c-3.838-1.655-7.103-3.961-9.795-6.917c-2.692-2.955-4.758-6.483-6.197-10.584c-1.439-4.1-2.159-8.611-2.159-13.531
	c0-3.25,0.348-6.375,1.044-9.377c0.696-3.001,1.718-5.818,3.064-8.449c1.346-2.63,2.994-5.013,4.943-7.148
	c1.95-2.136,4.186-3.977,6.708-5.524c2.522-1.547,5.299-2.739,8.333-3.574c3.033-0.835,6.297-1.253,9.794-1.253
	c6.592,0,12.471,1.177,17.64,3.528v6.824c-5.695-3.157-11.822-4.735-18.383-4.735c-4.054,0-7.722,0.743-11.001,2.228
	c-3.281,1.485-6.074,3.528-8.379,6.127c-2.306,2.6-4.093,5.671-5.362,9.214c-1.269,3.544-1.919,7.389-1.949,11.536
	c-0.031,4.116,0.502,7.915,1.601,11.396c1.098,3.482,2.731,6.492,4.897,9.029c2.166,2.538,4.843,4.519,8.031,5.942
	c3.187,1.424,6.87,2.135,11.048,2.135c5.632,0,10.521-1.176,14.668-3.528V190.14h-15.133v-5.617h21.307V213.814z"/>
<path fill="#3E393C" d="M303.145,195.71c0.029,2.909,0.416,5.524,1.16,7.845c0.742,2.321,1.811,4.287,3.203,5.896
	c1.393,1.609,3.086,2.839,5.082,3.69c1.996,0.852,4.248,1.276,6.754,1.276c5.354,0,10.414-1.872,15.18-5.617v5.849
	c-4.549,3.25-10.057,4.875-16.525,4.875c-3.188,0-6.08-0.557-8.68-1.671c-2.6-1.114-4.813-2.731-6.639-4.851
	c-1.826-2.119-3.234-4.727-4.224-7.822c-0.991-3.094-1.486-6.622-1.486-10.583c0-3.559,0.542-6.854,1.625-9.888
	c1.083-3.033,2.583-5.655,4.503-7.868c1.918-2.212,4.193-3.946,6.824-5.199c2.629-1.253,5.508-1.88,8.633-1.88
	c3.064,0,5.771,0.534,8.125,1.601c2.352,1.068,4.324,2.592,5.918,4.573c1.594,1.981,2.809,4.395,3.645,7.242
	s1.252,6.035,1.252,9.563v2.971H303.145z M331.367,190.511c-0.092-4.951-1.27-8.789-3.527-11.512c-2.26-2.723-5.4-4.085-9.424-4.085
	c-2.012,0-3.877,0.356-5.594,1.068c-1.717,0.712-3.227,1.741-4.525,3.087c-1.301,1.346-2.377,2.987-3.227,4.92
	c-0.852,1.935-1.447,4.108-1.787,6.522H331.367z"/>
<path fill="#3E393C" d="M353.088,210.75v29.523h-5.941v-69.399h5.941v9.099h0.186c1.764-3.311,4.123-5.841,7.08-7.59
	c2.955-1.748,6.289-2.623,10.002-2.623c3.033,0,5.75,0.55,8.148,1.648c2.396,1.099,4.424,2.654,6.08,4.665
	c1.656,2.012,2.924,4.457,3.807,7.334s1.322,6.112,1.322,9.702c0,3.931-0.494,7.513-1.484,10.747
	c-0.99,3.234-2.414,6.011-4.271,8.333c-1.855,2.321-4.107,4.124-6.754,5.408c-2.646,1.284-5.625,1.927-8.936,1.927
	c-6.686,0-11.684-2.925-14.994-8.773H353.088z M353.088,198.635c0,2.167,0.363,4.201,1.092,6.104
	c0.727,1.903,1.74,3.574,3.039,5.014c1.301,1.439,2.871,2.576,4.713,3.412c1.84,0.835,3.875,1.253,6.104,1.253
	c2.383,0,4.533-0.502,6.453-1.509c1.918-1.005,3.551-2.437,4.896-4.294c1.346-1.856,2.383-4.1,3.111-6.731
	c0.727-2.63,1.09-5.57,1.09-8.82c0-2.785-0.34-5.299-1.021-7.543c-0.68-2.244-1.646-4.155-2.9-5.733
	c-1.254-1.579-2.77-2.786-4.549-3.621c-1.781-0.835-3.77-1.253-5.965-1.253c-2.477,0-4.705,0.457-6.686,1.37
	c-1.98,0.913-3.668,2.159-5.061,3.737s-2.459,3.428-3.203,5.547c-0.742,2.12-1.113,4.371-1.113,6.754V198.635z"/>
<path fill="#3E393C" d="M431.768,218.41v-27.945c0-5.322-0.961-9.245-2.879-11.768c-1.92-2.522-4.906-3.783-8.959-3.783
	c-1.92,0-3.744,0.387-5.479,1.161c-1.732,0.774-3.248,1.888-4.549,3.342c-1.299,1.455-2.336,3.226-3.109,5.315
	c-0.775,2.089-1.16,4.449-1.16,7.079v26.599h-5.943v-70.374h5.943v31.055h0.186c3.713-6.22,9.035-9.33,15.969-9.33
	c5.291,0,9.268,1.625,11.93,4.874c2.66,3.25,3.992,8.046,3.992,14.39v29.384H431.768z"/>
<path fill="#3E393C" d="M451.932,158.852c-1.146,0-2.137-0.402-2.971-1.207c-0.836-0.805-1.254-1.826-1.254-3.064
	c0-1.207,0.418-2.205,1.254-2.994c0.834-0.789,1.824-1.184,2.971-1.184c0.586,0,1.145,0.101,1.67,0.302
	c0.527,0.202,0.982,0.487,1.369,0.858c0.387,0.372,0.697,0.813,0.93,1.323s0.348,1.076,0.348,1.694c0,0.588-0.109,1.146-0.324,1.671
	c-0.217,0.527-0.527,0.983-0.93,1.37c-0.402,0.387-0.857,0.689-1.369,0.905C453.115,158.744,452.549,158.852,451.932,158.852z
	 M449.006,218.41v-47.535h5.943v47.535H449.006z"/>
</svg>
